<?xml version="1.0" encoding="UTF-8"?>
<svg xmlns="http://www.w3.org/2000/svg" xmlns:xlink="http://www.w3.org/1999/xlink" width="500pt" height="360pt" viewBox="0 0 500 360" version="1.1">
<g id="haskell_logo_triangles">
<path style="fill-rule:nonzero;fill:rgb(33.885711%,66.111662%,88.497225%);fill-opacity:1;stroke-width:2;stroke-linecap:round;stroke-linejoin:round;stroke:rgb(33.885711%,66.111662%,88.497225%);stroke-opacity:1;stroke-miterlimit:10;" d="M 85 0 L 198.335938 170 L 85 340 Z M 85 0 " transform="matrix(1,0,0,1,10,10)"/>
<path style="fill-rule:nonzero;fill:rgb(34.23588%,63.557707%,86.379685%);fill-opacity:1;stroke-width:2;stroke-linecap:round;stroke-linejoin:round;stroke:rgb(34.23588%,63.557707%,86.379685%);stroke-opacity:1;stroke-miterlimit:10;" d="M 0 0 L 85 0 L 85 340 Z M 0 0 " transform="matrix(1,0,0,1,10,10)"/>
<path style="fill-rule:nonzero;fill:rgb(21.843385%,48.95212%,65.988823%);fill-opacity:1;stroke-width:2;stroke-linecap:round;stroke-linejoin:round;stroke:rgb(21.843385%,48.95212%,65.988823%);stroke-opacity:1;stroke-miterlimit:10;" d="M 0 340 L 113.335938 170 L 0 0 Z M 0 340 " transform="matrix(1,0,0,1,10,10)"/>
<path style="fill-rule:nonzero;fill:rgb(34.23588%,63.557707%,86.379685%);fill-opacity:1;stroke-width:2;stroke-linecap:round;stroke-linejoin:round;stroke:rgb(34.23588%,63.557707%,86.379685%);stroke-opacity:1;stroke-miterlimit:10;" d="M 0 340 L 0 0 L 85 340 Z M 0 340 " transform="matrix(1,0,0,1,10,10)"/>
<path style="fill-rule:nonzero;fill:rgb(17.673279%,43.637999%,75.575691%);fill-opacity:1;stroke-width:2;stroke-linecap:round;stroke-linejoin:round;stroke:rgb(17.673279%,43.637999%,75.575691%);stroke-opacity:1;stroke-miterlimit:10;" d="M 113.335938 0 L 198.335938 0 L 399.183594 301.277344 Z M 113.335938 0 " transform="matrix(1,0,0,1,10,10)"/>
<path style="fill-rule:nonzero;fill:rgb(13.145665%,55.627932%,81.12653%);fill-opacity:1;stroke-width:2;stroke-linecap:round;stroke-linejoin:round;stroke:rgb(13.145665%,55.627932%,81.12653%);stroke-opacity:1;stroke-miterlimit:10;" d="M 226.667969 170 L 113.335938 0 L 399.183594 301.277344 Z M 226.667969 170 " transform="matrix(1,0,0,1,10,10)"/>
<path style="fill-rule:nonzero;fill:rgb(8.627031%,30.765645%,60.797699%);fill-opacity:1;stroke-width:2;stroke-linecap:round;stroke-linejoin:round;stroke:rgb(8.627031%,30.765645%,60.797699%);stroke-opacity:1;stroke-miterlimit:10;" d="M 226.667969 170 L 399.183594 301.277344 L 221.859375 177.214844 Z M 226.667969 170 " transform="matrix(1,0,0,1,10,10)"/>
<path style="fill-rule:nonzero;fill:rgb(31.331085%,70.101221%,91.583093%);fill-opacity:1;stroke-width:2;stroke-linecap:round;stroke-linejoin:round;stroke:rgb(31.331085%,70.101221%,91.583093%);stroke-opacity:1;stroke-miterlimit:10;" d="M 198.335938 340 L 113.335938 340 L 221.859375 177.214844 Z M 198.335938 340 " transform="matrix(1,0,0,1,10,10)"/>
<path style="fill-rule:nonzero;fill:rgb(18.883245%,53.254383%,71.499506%);fill-opacity:1;stroke-width:2;stroke-linecap:round;stroke-linejoin:round;stroke:rgb(18.883245%,53.254383%,71.499506%);stroke-opacity:1;stroke-miterlimit:10;" d="M 269.167969 233.75 L 198.335938 340 L 221.859375 177.214844 Z M 269.167969 233.75 " transform="matrix(1,0,0,1,10,10)"/>
<path style="fill-rule:nonzero;fill:rgb(21.554603%,61.686405%,85.500171%);fill-opacity:1;stroke-width:2;stroke-linecap:round;stroke-linejoin:round;stroke:rgb(21.554603%,61.686405%,85.500171%);stroke-opacity:1;stroke-miterlimit:10;" d="M 425 340 L 340 340 L 269.167969 233.75 Z M 425 340 " transform="matrix(1,0,0,1,10,10)"/>
<path style="fill-rule:nonzero;fill:rgb(10.201226%,38.629272%,66.295379%);fill-opacity:1;stroke-width:2;stroke-linecap:round;stroke-linejoin:round;stroke:rgb(10.201226%,38.629272%,66.295379%);stroke-opacity:1;stroke-miterlimit:10;" d="M 269.167969 233.75 L 221.859375 177.214844 L 399.183594 301.277344 Z M 269.167969 233.75 " transform="matrix(1,0,0,1,10,10)"/>
<path style="fill-rule:nonzero;fill:rgb(13.723006%,53.528458%,95.291979%);fill-opacity:1;stroke-width:2;stroke-linecap:round;stroke-linejoin:round;stroke:rgb(13.723006%,53.528458%,95.291979%);stroke-opacity:1;stroke-miterlimit:10;" d="M 269.167969 233.75 L 399.183594 301.277344 L 425 340 Z M 269.167969 233.75 " transform="matrix(1,0,0,1,10,10)"/>
<path style="fill-rule:nonzero;fill:rgb(35.767075%,73.189267%,97.236787%);fill-opacity:1;stroke-width:2;stroke-linecap:round;stroke-linejoin:round;stroke:rgb(35.767075%,73.189267%,97.236787%);stroke-opacity:1;stroke-miterlimit:10;" d="M 292.78125 99.167969 L 406.84375 99.167969 L 323.070312 144.601562 Z M 292.78125 99.167969 " transform="matrix(1,0,0,1,10,10)"/>
<path style="fill-rule:nonzero;fill:rgb(25.000736%,58.751669%,78.946944%);fill-opacity:1;stroke-width:2;stroke-linecap:round;stroke-linejoin:round;stroke:rgb(25.000736%,58.751669%,78.946944%);stroke-opacity:1;stroke-miterlimit:10;" d="M 481.667969 99.164062 L 481.667969 155.835938 L 330.558594 155.835938 Z M 481.667969 99.164062 " transform="matrix(1,0,0,1,10,10)"/>
<path style="fill-rule:nonzero;fill:rgb(26.744552%,64.298134%,85.219472%);fill-opacity:1;stroke-width:2;stroke-linecap:round;stroke-linejoin:round;stroke:rgb(26.744552%,64.298134%,85.219472%);stroke-opacity:1;stroke-miterlimit:10;" d="M 406.84375 99.167969 L 481.667969 99.164062 L 330.558594 155.835938 Z M 406.84375 99.167969 " transform="matrix(1,0,0,1,10,10)"/>
<path style="fill-rule:nonzero;fill:rgb(18.461568%,46.617248%,63.914945%);fill-opacity:1;stroke-width:2;stroke-linecap:round;stroke-linejoin:round;stroke:rgb(18.461568%,46.617248%,63.914945%);stroke-opacity:1;stroke-miterlimit:10;" d="M 406.84375 99.167969 L 330.558594 155.835938 L 323.070312 144.601562 Z M 406.84375 99.167969 " transform="matrix(1,0,0,1,10,10)"/>
<path style="fill-rule:nonzero;fill:rgb(22.788837%,47.437488%,62.10466%);fill-opacity:1;stroke-width:2;stroke-linecap:round;stroke-linejoin:round;stroke:rgb(22.788837%,47.437488%,62.10466%);stroke-opacity:1;stroke-miterlimit:10;" d="M 385.988281 238.980469 L 349.449219 184.167969 L 481.667969 184.164062 Z M 385.988281 238.980469 " transform="matrix(1,0,0,1,10,10)"/>
<path style="fill-rule:nonzero;fill:rgb(8.704829%,47.351988%,85.046414%);fill-opacity:1;stroke-width:2;stroke-linecap:round;stroke-linejoin:round;stroke:rgb(8.704829%,47.351988%,85.046414%);stroke-opacity:1;stroke-miterlimit:10;" d="M 385.988281 238.980469 L 481.667969 184.164062 L 481.667969 197.058594 Z M 385.988281 238.980469 " transform="matrix(1,0,0,1,10,10)"/>
<path style="fill-rule:nonzero;fill:rgb(15.860676%,47.837477%,92.098656%);fill-opacity:1;stroke-width:2;stroke-linecap:round;stroke-linejoin:round;stroke:rgb(15.860676%,47.837477%,92.098656%);stroke-opacity:1;stroke-miterlimit:10;" d="M 385.988281 238.980469 L 481.667969 197.058594 L 481.667969 240.835938 Z M 385.988281 238.980469 " transform="matrix(1,0,0,1,10,10)"/>
<path style="fill-rule:nonzero;fill:rgb(22.822837%,69.6229%,93.806498%);fill-opacity:1;stroke-width:2;stroke-linecap:round;stroke-linejoin:round;stroke:rgb(22.822837%,69.6229%,93.806498%);stroke-opacity:1;stroke-miterlimit:10;" d="M 385.988281 238.980469 L 481.667969 240.835938 L 387.222656 240.835938 Z M 385.988281 238.980469 " transform="matrix(1,0,0,1,10,10)"/>
<path style="fill:none;stroke-width:2;stroke-linecap:round;stroke-linejoin:round;stroke:rgb(0%,0%,0%);stroke-opacity:1;stroke-miterlimit:10;" d="M 0 340 L 113.335938 170 L 0 0 L 85 0 L 198.335938 170 L 85 340 Z M 0 340 " transform="matrix(1,0,0,1,10,10)"/>
<path style="fill:none;stroke-width:2;stroke-linecap:round;stroke-linejoin:round;stroke:rgb(0%,0%,0%);stroke-opacity:1;stroke-miterlimit:10;" d="M 113.335938 340 L 226.667969 170 L 113.335938 0 L 198.335938 0 L 425 340 L 340 340 L 269.167969 233.75 L 198.335938 340 Z M 113.335938 340 " transform="matrix(1,0,0,1,10,10)"/>
<path style="fill:none;stroke-width:2;stroke-linecap:round;stroke-linejoin:round;stroke:rgb(0%,0%,0%);stroke-opacity:1;stroke-miterlimit:10;" d="M 330.558594 155.835938 L 292.78125 99.167969 L 481.667969 99.164062 L 481.667969 155.835938 Z M 330.558594 155.835938 " transform="matrix(1,0,0,1,10,10)"/>
<path style="fill:none;stroke-width:2;stroke-linecap:round;stroke-linejoin:round;stroke:rgb(0%,0%,0%);stroke-opacity:1;stroke-miterlimit:10;" d="M 387.222656 240.835938 L 349.449219 184.167969 L 481.667969 184.164062 L 481.667969 240.835938 Z M 387.222656 240.835938 " transform="matrix(1,0,0,1,10,10)"/>
</g>
</svg>
